<svg width="35" height="23" viewBox="0 0 35 23" fill="none" xmlns="http://www.w3.org/2000/svg">
<path fill-rule="evenodd" clip-rule="evenodd" d="M30.2704 10L22.5903 2.31992C22.0595 1.78921 22.0595 0.928757 22.5903 0.398046C23.121 -0.132662 23.9814 -0.132662 24.5121 0.398048L34.6019 10.4879C34.8802 10.7661 35.0125 11.135 34.999 11.4995C35.0128 11.8643 34.8805 12.2336 34.602 12.5122L24.5122 22.602C23.9815 23.1327 23.121 23.1327 22.5903 22.602C22.0596 22.0713 22.0596 21.2108 22.5903 20.6801L30.2704 13L1.5 13C0.671574 13 0 12.3284 0 11.5C0 10.6716 0.671574 10 1.5 10L30.2704 10Z" fill="#000AFF"/>
</svg>
