<svg width="24" height="25" viewBox="0 0 24 25" fill="none" xmlns="http://www.w3.org/2000/svg">
<g clip-path="url(#clip0_10317_11989)">
<path d="M17.6475 9.86976C17.4225 9.6448 17.1173 9.51842 16.7991 9.51842C16.4809 9.51842 16.1758 9.6448 15.9507 9.86976L13.1991 12.6214V2.31816C13.1991 1.9999 13.0727 1.69468 12.8476 1.46964C12.6226 1.24459 12.3174 1.11816 11.9991 1.11816C11.6809 1.11816 11.3756 1.24459 11.1506 1.46964C10.9255 1.69468 10.7991 1.9999 10.7991 2.31816V12.6214L8.04752 9.86976C7.93682 9.75515 7.80441 9.66373 7.65801 9.60084C7.5116 9.53795 7.35414 9.50485 7.1948 9.50346C7.03547 9.50208 6.87745 9.53244 6.72998 9.59278C6.5825 9.65312 6.44852 9.74222 6.33585 9.85489C6.22318 9.96756 6.13407 10.1015 6.07373 10.249C6.0134 10.3965 5.98304 10.5545 5.98442 10.7138C5.9858 10.8732 6.01891 11.0306 6.0818 11.177C6.14469 11.3235 6.23611 11.4559 6.35072 11.5666L11.1507 16.3666C11.2622 16.4783 11.3946 16.567 11.5404 16.6275C11.6862 16.688 11.8425 16.7191 12.0003 16.7191C12.1582 16.7191 12.3145 16.688 12.4602 16.6275C12.606 16.567 12.7385 16.4783 12.8499 16.3666L17.6499 11.5666C17.8746 11.3412 18.0005 11.0359 18.0001 10.7177C17.9996 10.3995 17.8728 10.0945 17.6475 9.86976Z" fill="white"/>
<path d="M21.6 14.918H18.54L14.97 18.488C14.58 18.878 14.117 19.1874 13.6074 19.3985C13.0978 19.6096 12.5516 19.7183 12 19.7183C11.4484 19.7183 10.9022 19.6096 10.3926 19.3985C9.88304 19.1874 9.42001 18.878 9.03 18.488L5.46 14.918H2.4C1.76348 14.918 1.15303 15.1708 0.702944 15.6209C0.252856 16.071 0 16.6814 0 17.318L0 22.118C0 22.7545 0.252856 23.3649 0.702944 23.815C1.15303 24.2651 1.76348 24.518 2.4 24.518H21.6C22.2365 24.518 22.847 24.2651 23.2971 23.815C23.7471 23.3649 24 22.7545 24 22.118V17.318C24 16.6814 23.7471 16.071 23.2971 15.6209C22.847 15.1708 22.2365 14.918 21.6 14.918ZM18 20.918C17.6817 20.918 17.3765 20.7915 17.1515 20.5665C16.9264 20.3415 16.8 20.0362 16.8 19.718C16.8 19.3997 16.9264 19.0945 17.1515 18.8694C17.3765 18.6444 17.6817 18.518 18 18.518C18.3183 18.518 18.6235 18.6444 18.8485 18.8694C19.0736 19.0945 19.2 19.3997 19.2 19.718C19.2 20.0362 19.0736 20.3415 18.8485 20.5665C18.6235 20.7915 18.3183 20.918 18 20.918Z" fill="white"/>
</g>
<defs>
<clipPath id="clip0_10317_11989">
<rect width="24" height="24" fill="white" transform="translate(0 0.518555)"/>
</clipPath>
</defs>
</svg>
