<svg width="328" height="114" viewBox="0 0 328 114" fill="none" xmlns="http://www.w3.org/2000/svg">
<path d="M317.146 113.596V97.1936H327.779V99.0549H319.333V104.336H327.29V106.221H319.333V111.735H327.779V113.596H317.146Z" fill="#000577"/>
<path d="M310.135 113.596V97.1936H312.369V113.596H310.135Z" fill="#000577"/>
<path d="M299.143 113.596V99.1247H293.28V97.1936H307.24V99.1247H301.377V113.596H299.143Z" fill="#000577"/>
<path d="M277.861 113.596L285.12 97.1936H287.051L294.31 113.596H292.007L290.006 108.943L291.053 109.595H281.095L282.142 108.943L280.164 113.596H277.861ZM286.051 99.7064L282.444 108.222L281.863 107.733H290.285L289.727 108.222L286.12 99.7064H286.051Z" fill="#000577"/>
<path d="M259.008 113.596V97.1936H261.172L267.361 109.083H266.896L273.061 97.1936H275.179V113.596H273.108V100.335H273.457L267.85 111.037H266.361L260.73 100.335H261.079V113.596H259.008Z" fill="#000577"/>
<path d="M242.208 113.596V97.1936H248.955C250.739 97.1936 252.104 97.6046 253.05 98.4267C254.012 99.2488 254.493 100.428 254.493 101.963C254.493 102.894 254.299 103.7 253.911 104.383C253.523 105.05 252.957 105.577 252.213 105.965C251.484 106.337 250.607 106.547 249.583 106.593L249.723 106.407L250.142 106.43C250.654 106.461 251.104 106.624 251.491 106.919C251.879 107.198 252.244 107.648 252.585 108.268L255.447 113.596H252.98L250.212 108.408C249.979 107.989 249.731 107.664 249.467 107.431C249.203 107.198 248.893 107.043 248.536 106.966C248.195 106.872 247.784 106.826 247.303 106.826H244.442V113.596H242.208ZM244.442 105.034H248.676C249.901 105.034 250.809 104.786 251.398 104.29C252.003 103.778 252.306 103.018 252.306 102.01C252.306 101.017 252.003 100.273 251.398 99.7762C250.793 99.2798 249.878 99.0317 248.653 99.0317H244.442V105.034Z" fill="#000577"/>
<path d="M230.387 113.806C229.223 113.806 228.169 113.612 227.223 113.225C226.292 112.837 225.493 112.278 224.826 111.549C224.159 110.805 223.647 109.913 223.291 108.874C222.934 107.835 222.755 106.671 222.755 105.384C222.755 104.081 222.926 102.918 223.267 101.894C223.624 100.855 224.136 99.9705 224.803 99.2415C225.47 98.5125 226.276 97.9541 227.223 97.5663C228.169 97.1785 229.223 96.9846 230.387 96.9846C231.566 96.9846 232.62 97.1785 233.551 97.5663C234.497 97.9541 235.304 98.5125 235.971 99.2415C236.653 99.9705 237.165 100.855 237.506 101.894C237.863 102.918 238.041 104.073 238.041 105.361C238.041 106.663 237.863 107.835 237.506 108.874C237.15 109.913 236.638 110.805 235.971 111.549C235.304 112.278 234.497 112.837 233.551 113.225C232.62 113.612 231.566 113.806 230.387 113.806ZM230.387 111.829C231.519 111.829 232.481 111.58 233.272 111.084C234.063 110.588 234.668 109.859 235.087 108.897C235.505 107.92 235.715 106.749 235.715 105.384C235.715 104.003 235.505 102.84 235.087 101.894C234.683 100.932 234.078 100.203 233.272 99.7068C232.481 99.2104 231.519 98.9623 230.387 98.9623C229.27 98.9623 228.316 99.2104 227.525 99.7068C226.734 100.203 226.129 100.932 225.71 101.894C225.291 102.84 225.082 104.003 225.082 105.384C225.082 106.749 225.291 107.912 225.71 108.874C226.129 109.835 226.734 110.572 227.525 111.084C228.316 111.58 229.27 111.829 230.387 111.829Z" fill="#000577"/>
<path d="M210.314 113.596V97.1936H220.808V99.0549H212.548V104.429H220.342V106.291H212.548V113.596H210.314Z" fill="#000577"/>
<path d="M191.662 113.596V97.1936H193.476L203.504 110.479H203.155V97.1936H205.249V113.596H203.411L193.43 100.335H193.779V113.596H191.662Z" fill="#000577"/>
<path d="M184.651 113.596V97.1936H186.884V113.596H184.651Z" fill="#000577"/>
<path d="M173.641 113.596V99.1247H167.778V97.1936H181.738V99.1247H175.875V113.596H173.641Z" fill="#000577"/>
<path d="M154.646 113.596V97.1936H156.88V104.569H156.95L164.651 97.1936H167.466L158.462 105.756L158.555 104.592L167.978 113.596H165.07L156.95 105.919H156.88V113.596H154.646Z" fill="#000577"/>
<path d="M137.883 113.596V97.1936H144.63C146.414 97.1936 147.779 97.6046 148.725 98.4267C149.687 99.2488 150.168 100.428 150.168 101.963C150.168 102.894 149.974 103.7 149.586 104.383C149.198 105.05 148.632 105.577 147.887 105.965C147.158 106.337 146.282 106.547 145.258 106.593L145.398 106.407L145.817 106.43C146.329 106.461 146.778 106.624 147.166 106.919C147.554 107.198 147.918 107.648 148.26 108.268L151.121 113.596H148.655L145.886 108.408C145.654 107.989 145.406 107.664 145.142 107.431C144.878 107.198 144.568 107.043 144.211 106.966C143.87 106.872 143.459 106.826 142.978 106.826H140.116V113.596H137.883ZM140.116 105.034H144.351C145.576 105.034 146.484 104.786 147.073 104.29C147.678 103.778 147.98 103.018 147.98 102.01C147.98 101.017 147.678 100.273 147.073 99.7762C146.468 99.2798 145.553 99.0317 144.328 99.0317H140.116V105.034Z" fill="#000577"/>
<path d="M118.812 113.596L126.072 97.1936H128.003L135.262 113.596H132.959L130.958 108.943L132.005 109.595H122.047L123.094 108.943L121.116 113.596H118.812ZM127.002 99.7064L123.396 108.222L122.814 107.733H131.237L130.678 108.222L127.072 99.7064H127.002Z" fill="#000577"/>
<path d="M99.9595 113.596V97.1936H102.123L108.312 109.083H107.847L114.012 97.1936H116.13V113.596H114.059V100.335H114.408L108.801 111.037H107.312L101.681 100.335H102.03V113.596H99.9595Z" fill="#000577"/>
<path d="M317.073 90.5816V77.5559H318.921V83.3944H318.995L325.036 77.5559H327.346L320.251 84.4106L320.362 83.4129L327.789 90.5816H325.351L318.995 84.4845H318.921V90.5816H317.073Z" fill="#000577"/>
<path d="M305.25 90.5816V77.5559H313.841V79.1264H307.079V83.1911H313.472V84.7616H307.079V89.0111H313.841V90.5816H305.25Z" fill="#000577"/>
<path d="M295.909 90.7462C294.973 90.7462 294.123 90.5923 293.359 90.2843C292.608 89.9764 291.967 89.533 291.438 88.954C290.908 88.3751 290.495 87.673 290.2 86.8478C289.917 86.0225 289.775 85.0925 289.775 84.0578C289.775 83.0232 289.917 82.0994 290.2 81.2864C290.483 80.4611 290.89 79.7591 291.419 79.1801C291.961 78.6012 292.608 78.1578 293.359 77.8498C294.111 77.5419 294.961 77.3879 295.909 77.3879C296.857 77.3879 297.707 77.5419 298.459 77.8498C299.21 78.1578 299.851 78.6012 300.38 79.1801C300.922 79.7467 301.335 80.4427 301.618 81.2679C301.901 82.0932 302.043 83.017 302.043 84.0394C302.043 85.074 301.895 86.004 301.6 86.8293C301.316 87.6545 300.91 88.3628 300.38 88.954C299.851 89.533 299.21 89.9764 298.459 90.2843C297.707 90.5923 296.857 90.7462 295.909 90.7462ZM295.909 89.1018C296.796 89.1018 297.553 88.9109 298.182 88.5291C298.81 88.1349 299.29 87.5622 299.623 86.8108C299.955 86.0594 300.122 85.1418 300.122 84.0578C300.122 82.9616 299.955 82.0439 299.623 81.3049C299.302 80.5535 298.828 79.9869 298.2 79.6051C297.572 79.2232 296.808 79.0323 295.909 79.0323C295.022 79.0323 294.265 79.2232 293.636 79.6051C293.008 79.9869 292.528 80.5535 292.195 81.3049C291.863 82.0439 291.696 82.9616 291.696 84.0578C291.696 85.1418 291.863 86.0594 292.195 86.8108C292.528 87.5622 293.008 88.1349 293.636 88.5291C294.265 88.9109 295.022 89.1018 295.909 89.1018Z" fill="#000577"/>
<path d="M278.296 90.5816V89.3068L286.019 78.3873L286.186 79.1633H278.296V77.5559H287.793V78.8123L280.07 89.7502L279.904 88.9742H288.015V90.5816H278.296Z" fill="#000577"/>
<path d="M265.91 90.5816V77.5559H271.379C272.807 77.5559 273.904 77.8823 274.667 78.5351C275.431 79.1757 275.813 80.1056 275.813 81.3251C275.813 82.0271 275.671 82.6307 275.388 83.1357C275.117 83.6407 274.729 84.0472 274.224 84.3551C273.731 84.6508 273.146 84.8417 272.469 84.9279L272.524 84.9094L272.727 84.9464C273.035 84.9957 273.312 85.125 273.559 85.3344C273.805 85.5438 274.045 85.8702 274.279 86.3136L276.552 90.5816H274.538L272.376 86.5169C272.204 86.1843 272.013 85.9318 271.804 85.7593C271.594 85.5746 271.348 85.4452 271.065 85.3713C270.794 85.2974 270.461 85.2605 270.067 85.2605H267.757V90.5816H265.91ZM267.757 83.7639H271.231C272.179 83.7639 272.875 83.5668 273.319 83.1727C273.762 82.7785 273.984 82.1873 273.984 81.399C273.984 80.6106 273.756 80.0317 273.3 79.6622C272.844 79.2927 272.13 79.1079 271.157 79.1079H267.757V83.7639Z" fill="#000577"/>
<path d="M254.086 90.5816V77.5559H262.677V79.1264H255.915V83.1911H262.308V84.7616H255.915V89.0111H262.677V90.5816H254.086Z" fill="#000577"/>
<path d="M239.592 90.5816V77.5559H244.285C245.689 77.5559 246.878 77.8084 247.851 78.3134C248.837 78.8184 249.582 79.5575 250.087 80.5306C250.604 81.4913 250.863 82.6677 250.863 84.0595C250.863 85.4514 250.604 86.6339 250.087 87.607C249.569 88.58 248.818 89.3191 247.833 89.8241C246.86 90.3291 245.677 90.5816 244.285 90.5816H239.592ZM241.44 88.9927H244.174C245.739 88.9927 246.927 88.5862 247.74 87.7732C248.553 86.9603 248.96 85.7224 248.96 84.0595C248.96 82.3967 248.553 81.1649 247.74 80.3643C246.927 79.5513 245.739 79.1449 244.174 79.1449H241.44V88.9927Z" fill="#000577"/>
<path d="M224.79 90.5816V77.5559H226.397L234.175 87.8656H234.102V77.5559H235.857V90.5816H234.194L226.489 80.3089H226.563V90.5816H224.79Z" fill="#000577"/>
<path d="M215.431 90.7462C214.495 90.7462 213.645 90.5923 212.882 90.2843C212.13 89.9764 211.49 89.533 210.96 88.954C210.431 88.3751 210.018 87.673 209.722 86.8478C209.439 86.0225 209.297 85.0925 209.297 84.0578C209.297 83.0232 209.439 82.0994 209.722 81.2864C210.006 80.4611 210.412 79.7591 210.942 79.1801C211.484 78.6012 212.13 78.1578 212.882 77.8498C213.633 77.5419 214.483 77.3879 215.431 77.3879C216.38 77.3879 217.23 77.5419 217.981 77.8498C218.733 78.1578 219.373 78.6012 219.903 79.1801C220.445 79.7467 220.857 80.4427 221.141 81.2679C221.424 82.0932 221.566 83.017 221.566 84.0394C221.566 85.074 221.418 86.004 221.122 86.8293C220.839 87.6545 220.432 88.3628 219.903 88.954C219.373 89.533 218.733 89.9764 217.981 90.2843C217.23 90.5923 216.38 90.7462 215.431 90.7462ZM215.431 89.1018C216.318 89.1018 217.076 88.9109 217.704 88.5291C218.332 88.1349 218.813 87.5622 219.145 86.8108C219.478 86.0594 219.644 85.1418 219.644 84.0578C219.644 82.9616 219.478 82.0439 219.145 81.3049C218.825 80.5535 218.351 79.9869 217.723 79.6051C217.094 79.2232 216.331 79.0323 215.431 79.0323C214.545 79.0323 213.787 79.2232 213.159 79.6051C212.531 79.9869 212.05 80.5535 211.718 81.3049C211.385 82.0439 211.219 82.9616 211.219 84.0578C211.219 85.1418 211.385 86.0594 211.718 86.8108C212.05 87.5622 212.531 88.1349 213.159 88.5291C213.787 88.9109 214.545 89.1018 215.431 89.1018Z" fill="#000577"/>
<path d="M196.276 90.7462C194.921 90.7462 193.757 90.4814 192.784 89.9518C191.811 89.4221 191.066 88.6584 190.548 87.6607C190.031 86.663 189.772 85.462 189.772 84.0578C189.772 82.666 190.025 81.4773 190.53 80.4919C191.047 79.4942 191.78 78.7305 192.729 78.2009C193.677 77.6589 194.804 77.3879 196.11 77.3879C196.763 77.3879 197.378 77.4495 197.957 77.5727C198.536 77.6959 199.072 77.8745 199.565 78.1085C200.058 78.3425 200.476 78.632 200.821 78.9769L200.156 80.3996C199.577 79.9069 198.955 79.5558 198.29 79.3464C197.637 79.137 196.917 79.0323 196.128 79.0323C194.724 79.0323 193.634 79.4573 192.858 80.3072C192.082 81.1571 191.694 82.4073 191.694 84.0578C191.694 85.7577 192.088 87.0325 192.876 87.8824C193.677 88.72 194.841 89.1388 196.368 89.1388C197.034 89.1388 197.656 89.0895 198.235 88.991C198.826 88.8801 199.362 88.7262 199.842 88.5291L199.343 89.5083V85.1295H196.165V83.5775H200.988V89.8224C200.63 90.0072 200.193 90.1673 199.676 90.3028C199.158 90.4383 198.604 90.543 198.013 90.6169C197.434 90.7031 196.855 90.7462 196.276 90.7462Z" fill="#000577"/>
<path d="M175.497 90.5816V77.5559H177.105L184.883 87.8656H184.809V77.5559H186.564V90.5816H184.901L177.197 80.3089H177.271V90.5816H175.497Z" fill="#000577"/>
<path d="M169.921 90.5816V77.5559H171.769V90.5816H169.921Z" fill="#000577"/>
<path d="M161.173 90.5816V79.1633H156.536V77.5559H167.64V79.1633H163.021V90.5816H161.173Z" fill="#000577"/>
<path d="M143.205 90.5816V77.5559H145.052V83.1727H152.424V77.5559H154.272V90.5816H152.424V84.7801H145.052V90.5816H143.205Z" fill="#000577"/>
<path d="M135.827 90.7647C134.558 90.7647 133.462 90.4937 132.538 89.9518C131.614 89.4098 130.9 88.6399 130.395 87.6422C129.89 86.6445 129.637 85.4497 129.637 84.0578C129.637 82.666 129.89 81.4773 130.395 80.4919C130.9 79.4942 131.614 78.7305 132.538 78.2009C133.462 77.6589 134.558 77.3879 135.827 77.3879C136.726 77.3879 137.551 77.5234 138.303 77.7944C139.066 78.0531 139.713 78.4534 140.243 78.9954L139.577 80.418C138.998 79.9253 138.413 79.5743 137.822 79.3649C137.231 79.1432 136.578 79.0323 135.864 79.0323C134.521 79.0323 133.468 79.4634 132.704 80.3257C131.941 81.1756 131.559 82.4196 131.559 84.0578C131.559 85.6961 131.934 86.9463 132.686 87.8085C133.449 88.6707 134.509 89.1018 135.864 89.1018C136.578 89.1018 137.231 88.9971 137.822 88.7878C138.413 88.566 138.998 88.2088 139.577 87.7161L140.243 89.1388C139.713 89.6685 139.066 90.0749 138.303 90.3582C137.551 90.6292 136.726 90.7647 135.827 90.7647Z" fill="#000577"/>
<path d="M124.588 90.5816V77.5559H126.436V90.5816H124.588Z" fill="#000577"/>
<path d="M115.858 90.5816V79.1633H111.22V77.5559H122.324V79.1633H117.705V90.5816H115.858Z" fill="#000577"/>
<path d="M105.17 90.7462C104.455 90.7462 103.778 90.6908 103.137 90.5799C102.497 90.4814 101.906 90.3274 101.364 90.118C100.834 89.8963 100.366 89.6253 99.9595 89.3051L100.625 87.79C101.043 88.1103 101.487 88.369 101.955 88.566C102.435 88.7631 102.94 88.9048 103.47 88.991C104.012 89.0772 104.579 89.1203 105.17 89.1203C106.167 89.1203 106.931 88.9294 107.461 88.5476C107.99 88.1657 108.255 87.6422 108.255 86.9771C108.255 86.6076 108.169 86.3119 107.997 86.0902C107.824 85.8562 107.553 85.6653 107.184 85.5175C106.826 85.3573 106.365 85.2218 105.798 85.111L103.673 84.7045C102.466 84.4705 101.592 84.0578 101.05 83.4666C100.52 82.8631 100.255 82.1055 100.255 81.194C100.255 80.418 100.471 79.7467 100.902 79.1801C101.345 78.6135 101.949 78.1763 102.712 77.8683C103.476 77.5481 104.351 77.3879 105.336 77.3879C105.952 77.3879 106.531 77.4434 107.073 77.5542C107.615 77.6651 108.114 77.8375 108.569 78.0716C109.025 78.2933 109.432 78.5704 109.789 78.903L109.142 80.3996C108.612 79.8945 108.034 79.5373 107.405 79.3279C106.777 79.1185 106.081 79.0138 105.318 79.0138C104.702 79.0138 104.147 79.1001 103.655 79.2725C103.174 79.445 102.792 79.6913 102.509 80.0116C102.238 80.3195 102.103 80.7137 102.103 81.194C102.103 81.7114 102.263 82.1178 102.583 82.4135C102.916 82.7091 103.488 82.937 104.301 83.0971L106.408 83.4851C107.664 83.7314 108.594 84.1379 109.198 84.7045C109.801 85.2588 110.103 85.9855 110.103 86.8847C110.103 87.6361 109.9 88.3074 109.493 88.8986C109.087 89.4775 108.514 89.9333 107.775 90.2658C107.048 90.5861 106.18 90.7462 105.17 90.7462Z" fill="#000577"/>
<path d="M318.236 66.1181V1.02393H328V66.1181H318.236Z" fill="#000577"/>
<path d="M238.139 66.1181V1.02393H251.251L271.616 42.6842L291.981 1.02393H305V66.1181H295.794V12.9269L271.523 61.4685L247.252 12.9269V66.1181H238.139Z" fill="#000577"/>
<path d="M193.908 67.14C189.196 67.14 184.795 66.303 180.703 64.6292C176.612 62.8933 172.985 60.5066 169.823 57.4688C166.723 54.3691 164.306 50.8044 162.57 46.7748C160.896 42.6832 160.059 38.2816 160.059 33.57C160.059 28.8584 160.896 24.4878 162.57 20.4582C164.306 16.3665 166.723 12.8018 169.823 9.76412C172.985 6.6644 176.612 4.27761 180.703 2.60376C184.795 0.86792 189.196 0 193.908 0C198.62 0 203.021 0.86792 207.113 2.60376C211.266 4.27761 214.893 6.6644 217.993 9.76412C221.093 12.8018 223.51 16.3665 225.246 20.4582C226.982 24.4878 227.85 28.8584 227.85 33.57C227.85 38.2816 226.982 42.6832 225.246 46.7748C223.51 50.8044 221.093 54.3691 217.993 57.4688C214.893 60.5066 211.266 62.8933 207.113 64.6292C203.021 66.303 198.62 67.14 193.908 67.14ZM194.001 58.1198C197.349 58.1198 200.448 57.4998 203.3 56.2599C206.214 55.02 208.756 53.3152 210.926 51.1454C213.095 48.9136 214.8 46.3098 216.04 43.3341C217.28 40.2964 217.9 37.0417 217.9 33.57C217.9 30.0363 217.28 26.7816 216.04 23.8059C214.8 20.8301 213.095 18.2574 210.926 16.0875C208.756 13.8558 206.214 12.1199 203.3 10.88C200.448 9.64013 197.349 9.02019 194.001 9.02019C190.591 9.02019 187.43 9.64013 184.516 10.88C181.602 12.1199 179.06 13.8558 176.891 16.0875C174.721 18.2574 173.016 20.8301 171.776 23.8059C170.598 26.7816 170.009 30.0053 170.009 33.477C170.009 37.0107 170.598 40.2964 171.776 43.3341C173.016 46.3098 174.721 48.9136 176.891 51.1454C179.06 53.3152 181.602 55.02 184.516 56.2599C187.43 57.4998 190.591 58.1198 194.001 58.1198Z" fill="#000577"/>
<path d="M127.857 67.047C122.649 67.047 117.628 66.0241 112.792 63.9783C107.957 61.9325 103.679 59.0497 99.9595 55.3301L105.911 48.4487C109.445 51.9204 113.04 54.4932 116.698 56.167C120.418 57.8409 124.292 58.6778 128.322 58.6778C131.484 58.6778 134.242 58.2438 136.598 57.3759C139.016 56.446 140.876 55.1441 142.178 53.4702C143.48 51.7964 144.13 49.9056 144.13 47.7978C144.13 44.884 143.108 42.6522 141.062 41.1024C139.016 39.5525 135.637 38.3746 130.926 37.5687L120.046 35.8018C114.094 34.7479 109.631 32.8261 106.655 30.0364C103.741 27.2466 102.284 23.5269 102.284 18.8774C102.284 15.1577 103.276 11.903 105.26 9.11324C107.244 6.26149 110.034 4.06069 113.629 2.51083C117.287 0.960968 121.503 0.186035 126.276 0.186035C130.988 0.186035 135.606 0.960968 140.132 2.51083C144.719 3.9987 148.842 6.1685 152.5 9.02024L147.106 16.4596C140.101 11.1281 133.002 8.4623 125.811 8.4623C122.959 8.4623 120.48 8.86526 118.372 9.67118C116.264 10.4771 114.621 11.624 113.443 13.1119C112.265 14.5377 111.676 16.2116 111.676 18.1334C111.676 20.7992 112.575 22.845 114.373 24.2709C116.171 25.6347 119.147 26.6267 123.3 27.2466L133.808 29.0134C140.69 30.1293 145.742 32.1442 148.966 35.0579C152.19 37.9716 153.802 41.9703 153.802 47.0538C153.802 51.0215 152.717 54.5241 150.547 57.5619C148.377 60.5376 145.339 62.8624 141.434 64.5362C137.528 66.2101 133.003 67.047 127.857 67.047Z" fill="#000577"/>
<path fill-rule="evenodd" clip-rule="evenodd" d="M0.0551932 30.0653L45.2584 0L45.3688 25.7782L0 56.4003L0.0551932 30.0653Z" fill="url(#paint0_linear_9784_51082)"/>
<path fill-rule="evenodd" clip-rule="evenodd" d="M90.4615 12.8613L90.4064 39.252L45.3687 25.7782L45.2583 0L90.4615 12.8613Z" fill="url(#paint1_linear_9784_51082)"/>
<path fill-rule="evenodd" clip-rule="evenodd" d="M70.1509 52.6144L43.9341 44.6526L64.5763 31.5129L90.4068 39.252L70.1509 52.6144Z" fill="url(#paint2_linear_9784_51082)"/>
<path fill-rule="evenodd" clip-rule="evenodd" d="M90.2961 58.8499L63.9137 75.3858L0 56.4001L25.72 39.0291L90.2961 58.8499Z" fill="url(#paint3_linear_9784_51082)"/>
<path fill-rule="evenodd" clip-rule="evenodd" d="M90.4064 85.0186L45.2583 113.915L45.3135 87.0229L90.296 58.8506L90.4064 85.0186Z" fill="url(#paint4_linear_9784_51082)"/>
<path fill-rule="evenodd" clip-rule="evenodd" d="M0.0551758 74.9963L45.3136 87.0225L45.2584 113.914L0.110369 100.997L0.0551758 74.9963Z" fill="url(#paint5_linear_9784_51082)"/>
<path fill-rule="evenodd" clip-rule="evenodd" d="M17.993 61.7454L45.8104 69.9855L27.0447 82.1787L0.0551758 74.9964L17.993 61.7454Z" fill="url(#paint6_linear_9784_51082)"/>
<defs>
<linearGradient id="paint0_linear_9784_51082" x1="1.6856e-06" y1="56.5135" x2="45.6482" y2="0.339153" gradientUnits="userSpaceOnUse">
<stop stop-color="#000AFF"/>
<stop offset="1" stop-color="#43DAE2"/>
</linearGradient>
<linearGradient id="paint1_linear_9784_51082" x1="46.5707" y1="19.5613" x2="90.4631" y2="19.6673" gradientUnits="userSpaceOnUse">
<stop stop-color="#C4E8EA"/>
<stop offset="1" stop-color="#43DAE2"/>
</linearGradient>
<linearGradient id="paint2_linear_9784_51082" x1="56.4723" y1="37.8394" x2="80.8311" y2="46.9942" gradientUnits="userSpaceOnUse">
<stop stop-color="#01AFDF"/>
<stop offset="1" stop-color="#000AFF"/>
</linearGradient>
<linearGradient id="paint3_linear_9784_51082" x1="43.1832" y1="66.2171" x2="48.0201" y2="45.4876" gradientUnits="userSpaceOnUse">
<stop stop-color="#40DAE2"/>
<stop offset="1" stop-color="#C8EAEB"/>
</linearGradient>
<linearGradient id="paint4_linear_9784_51082" x1="45.2307" y1="113.915" x2="90.2802" y2="58.7325" gradientUnits="userSpaceOnUse">
<stop stop-color="#000AFF"/>
<stop offset="1" stop-color="#43DAE2"/>
</linearGradient>
<linearGradient id="paint5_linear_9784_51082" x1="19.2679" y1="106.522" x2="26.2643" y2="81.963" gradientUnits="userSpaceOnUse">
<stop stop-color="#40DAE2"/>
<stop offset="1" stop-color="#C3E8E9"/>
</linearGradient>
<linearGradient id="paint6_linear_9784_51082" x1="12.1987" y1="68.3375" x2="36.0706" y2="77.4497" gradientUnits="userSpaceOnUse">
<stop stop-color="#01AFDF"/>
<stop offset="1" stop-color="#000AFF"/>
</linearGradient>
</defs>
</svg>
