<svg width="32" height="32" viewBox="0 0 32 32" fill="none" xmlns="http://www.w3.org/2000/svg">
<g id="Group">
<path id="Subtract" fill-rule="evenodd" clip-rule="evenodd" d="M32 15.9999C32 24.8365 24.8366 31.9999 16 31.9999C7.16344 31.9999 0 24.8365 0 15.9999C0 7.16338 7.16344 -6.10352e-05 16 -6.10352e-05C24.8366 -6.10352e-05 32 7.16338 32 15.9999ZM18.0129 17.6442H14.6753C12.9056 17.6464 11.209 18.3504 9.95758 19.6017C8.7062 20.8531 8.00221 22.5497 8 24.3194C7.99989 24.4963 8.056 24.6687 8.16024 24.8116C8.26447 24.9546 8.41144 25.0607 8.57991 25.1146C11.1139 25.7701 13.7278 26.0642 16.3441 25.9882C18.9604 26.0642 21.5743 25.7701 24.1082 25.1146C24.2767 25.0607 24.4237 24.9546 24.5279 24.8116C24.6322 24.6687 24.6883 24.4963 24.6882 24.3194C24.6859 22.5497 23.982 20.8531 22.7306 19.6017C21.4792 18.3504 19.7826 17.6464 18.0129 17.6442ZM20.9334 10.5892C20.9334 13.0799 18.9308 15.9753 16.3441 15.9753C13.7575 15.9753 11.7549 13.0799 11.7549 10.5892C11.7549 9.37204 12.2384 8.20475 13.099 7.3441C13.9597 6.48345 15.127 5.99994 16.3441 5.99994C17.5613 5.99994 18.7286 6.48345 19.5892 7.3441C20.4499 8.20475 20.9334 9.37204 20.9334 10.5892Z" fill="#212529"/>
</g>
</svg>
