<svg width="18" height="29" viewBox="0 0 18 29" fill="none" xmlns="http://www.w3.org/2000/svg">
<mask id="path-1-outside-1_10317_11730" maskUnits="userSpaceOnUse" x="-0.964844" y="0" width="18" height="29" fill="black">
<rect fill="white" x="-0.964844" width="18" height="29"/>
<path fill-rule="evenodd" clip-rule="evenodd" d="M12.2438 14.5001L1.46712 3.72337C0.84411 3.10036 0.84411 2.09027 1.46712 1.46726C2.09013 0.844248 3.10023 0.844247 3.72324 1.46726L15.5679 13.3119C15.8945 13.6385 16.0499 14.0716 16.034 14.4994C16.0502 14.9277 15.8948 15.3612 15.5679 15.6882L3.72328 27.5328C3.10027 28.1558 2.09018 28.1558 1.46717 27.5328C0.844156 26.9098 0.844156 25.8997 1.46717 25.2767L12.2438 14.5001Z"/>
</mask>
<path fill-rule="evenodd" clip-rule="evenodd" d="M12.2438 14.5001L1.46712 3.72337C0.84411 3.10036 0.84411 2.09027 1.46712 1.46726C2.09013 0.844248 3.10023 0.844247 3.72324 1.46726L15.5679 13.3119C15.8945 13.6385 16.0499 14.0716 16.034 14.4994C16.0502 14.9277 15.8948 15.3612 15.5679 15.6882L3.72328 27.5328C3.10027 28.1558 2.09018 28.1558 1.46717 27.5328C0.844156 26.9098 0.844156 25.8997 1.46717 25.2767L12.2438 14.5001Z" fill="#000AFF"/>
<path d="M12.2438 14.5001L12.9509 15.2072L13.658 14.5001L12.9509 13.7929L12.2438 14.5001ZM1.46712 3.72337L0.760011 4.43048L0.760012 4.43048L1.46712 3.72337ZM1.46712 1.46726L2.17423 2.17436L2.17423 2.17436L1.46712 1.46726ZM3.72324 1.46726L4.43034 0.76015V0.76015L3.72324 1.46726ZM15.5679 13.3119L14.8607 14.019H14.8607L15.5679 13.3119ZM16.034 14.4994L15.0347 14.4624L15.0333 14.4998L15.0347 14.5372L16.034 14.4994ZM15.5679 15.6882L14.8608 14.9811H14.8608L15.5679 15.6882ZM3.72328 27.5328L3.01618 26.8257L3.01617 26.8257L3.72328 27.5328ZM1.46717 27.5328L0.760058 28.2399L0.760059 28.2399L1.46717 27.5328ZM1.46717 25.2767L2.17427 25.9838V25.9838L1.46717 25.2767ZM12.9509 13.7929L2.17422 3.01627L0.760012 4.43048L11.5367 15.2072L12.9509 13.7929ZM2.17423 3.01627C1.94174 2.78378 1.94174 2.40685 2.17423 2.17436L0.760014 0.76015C-0.253519 1.77368 -0.253523 3.41695 0.760011 4.43048L2.17423 3.01627ZM2.17423 2.17436C2.40671 1.94188 2.78364 1.94188 3.01613 2.17436L4.43034 0.76015C3.41681 -0.253384 1.77355 -0.253383 0.760013 0.760151L2.17423 2.17436ZM3.01613 2.17436L14.8607 14.019L16.275 12.6048L4.43034 0.76015L3.01613 2.17436ZM14.8607 14.019C14.9827 14.1409 15.0407 14.3007 15.0347 14.4624L17.0333 14.5365C17.0591 13.8424 16.8063 13.1361 16.275 12.6048L14.8607 14.019ZM15.0347 14.5372C15.0408 14.699 14.9828 14.8591 14.8608 14.9811L16.275 16.3953C16.8069 15.8634 17.0596 15.1564 17.0333 14.4616L15.0347 14.5372ZM14.8608 14.9811L3.01618 26.8257L4.43039 28.2399L16.275 16.3953L14.8608 14.9811ZM3.01617 26.8257C2.78369 27.0582 2.40676 27.0582 2.17427 26.8257L0.760059 28.2399C1.77359 29.2534 3.41685 29.2535 4.43039 28.2399L3.01617 26.8257ZM2.17427 26.8257C1.94179 26.5932 1.94179 26.2163 2.17427 25.9838L0.760059 24.5696C-0.253475 25.5831 -0.253473 27.2264 0.760058 28.2399L2.17427 26.8257ZM2.17427 25.9838L12.9509 15.2072L11.5367 13.7929L0.760059 24.5696L2.17427 25.9838Z" fill="#000AFF" mask="url(#path-1-outside-1_10317_11730)"/>
</svg>
